# File created by Blade
# Date/Time:  Wed Jan 21 14:28:00 2015
#---------------------------------------------------------
:version 1.10
:name HOM
:units
  mass 1.0
  length 1.000000
  angle deg
:documentation
     Acclaim Skeleton File
:root
   axis xyz
   order TX TY TZ RX RY RZ
   position 0.000000 0.000000 0.000000
   orientation 0 0 0
:bonedata
   begin
      id 1
      name Spine_dum
      direction 0.000000 1.000000 0.000000
      length 7.067664
      axis 0.0 0.0 0.0 xyz
   end
   begin
      id 2
      name LeftUpLeg_dum
      direction 1.000000 0.000000 0.000000
      length 4.013002
      axis 0.0 0.0 0.0 xyz
   end
   begin
      id 3
      name RightUpLeg_dum
      direction -1.000000 0.000000 0.000000
      length 4.013002
      axis 0.0 0.0 0.0 xyz
   end
   begin
      id 4
      name Spine
      direction 0.000000 1.000000 0.000000
      length 0.000000
      axis 0.0 0.0 0.0 xyz
      dof rx ry rz
   end
   begin
      id 5
      name Spine_dum1
      direction 0.000000 1.000000 0.000000
      length 15.039886
      axis 0.0 0.0 0.0 xyz
   end
   begin
      id 6
      name Spine_dum2
      direction 0.000000 1.000000 0.000000
      length 10.530368
      axis 0.0 0.0 0.0 xyz
   end
   begin
      id 7
      name Spine_dum3
      direction 0.000000 1.000000 0.000000
      length 10.530368
      axis 0.0 0.0 0.0 xyz
   end
   begin
      id 8
      name Head
      direction 0.000000 1.000000 0.000000
      length 4.527550
      axis 0.0 0.0 0.0 xyz
      dof rx ry rz
   end
   begin
      id 9
      name LeftShoulder
      direction 1.000000 0.000000 0.000000
      length 7.028855
      axis 0.0 0.0 -90.0 xyz
      dof rx ry rz
   end
   begin
      id 10
      name LeftArm
      direction 1.000000 0.000000 0.000000
      length 10.797705
      axis 0.0 0.0 -90.0 xyz
      dof rx ry rz
   end
   begin
      id 11
      name LeftForeArm
      direction 1.000000 0.000000 0.000000
      length 7.907442
      axis 0.0 0.0 -90.0 xyz
      dof ry rz rx
   end
   begin
      id 12
      name LeftHand
      direction 0.000000 0.000000 0.000000
      length 0.000000
      axis 0.0 0.0 -90.0 xyz
      dof rx ry rz
   end
   begin
      id 13
      name LeftHand_dum1
      direction 0.000000 0.000000 0.000000
      length 0.000000
      axis 0.0 0.0 -90.0 xyz
   end
   begin
      id 14
      name LeftHand_dum2
      direction 1.000000 0.000000 0.000000
      length 3.937000
      axis 0.0 0.0 -90.0 xyz
   end
   begin
      id 15
      name LeftHandThumb1
      direction 0.000000 0.000000 1.000000
      length 3.937000
      axis 0.0 0.0 -90.0 xyz
      dof rx rz ry
   end
   begin
      id 16
      name RightShoulder
      direction -1.000000 0.000000 0.000000
      length 7.028855
      axis 0.0 0.0 90.0 xyz
      dof rx ry rz
   end
   begin
      id 17
      name RightArm
      direction -1.000000 0.000000 0.000000
      length 10.797705
      axis 0.0 0.0 90.0 xyz
      dof rx ry rz
   end
   begin
      id 18
      name RightForeArm
      direction -1.000000 0.000000 0.000000
      length 7.907442
      axis 0.0 0.0 90.0 xyz
      dof ry rz rx
   end
   begin
      id 19
      name RightHand
      direction 0.000000 0.000000 0.000000
      length 0.000000
      axis 0.0 0.0 90.0 xyz
      dof rx ry rz
   end
   begin
      id 20
      name RightHand_dum1
      direction 0.000000 0.000000 0.000000
      length 0.000000
      axis 0.0 0.0 90.0 xyz
   end
   begin
      id 21
      name RightHand_dum2
      direction -1.000000 0.000000 0.000000
      length 3.937000
      axis 0.0 0.0 90.0 xyz
   end
   begin
      id 22
      name RightHandThumb1
      direction 0.000000 0.000000 1.000000
      length 3.937000
      axis 0.0 0.0 90.0 xyz
      dof rx rz ry
   end
   begin
      id 23
      name LeftUpLeg
      direction 0.000000 -1.000000 0.000000
      length 16.899758
      axis 0.0 0.0 0.0 xyz
      dof rx ry rz
   end
   begin
      id 24
      name LeftLeg
      direction 0.000000 -1.000000 0.000000
      length 17.389183
      axis 0.0 0.0 0.0 xyz
      dof rx ry rz
   end
   begin
      id 25
      name LeftFoot
      direction 0.000000 -0.258819 0.965926
      length 4.924528
      axis 15.0 0.0 0.0 xyz
      dof rx ry rz
   end
   begin
      id 26
      name LeftToeBase
      direction 0.000000 0.000000 1.000000
      length 2.952750
      axis 0.0 0.0 0.0 xyz
      dof rx ry rz
   end
   begin
      id 27
      name RightUpLeg
      direction 0.000000 -1.000000 0.000000
      length 16.899758
      axis 0.0 0.0 0.0 xyz
      dof rx ry rz
   end
   begin
      id 28
      name RightLeg
      direction 0.000000 -1.000000 0.000000
      length 17.389183
      axis 0.0 0.0 0.0 xyz
      dof rx ry rz
   end
   begin
      id 29
      name RightFoot
      direction 0.000000 -0.258819 0.965926
      length 4.924528
      axis 15.0 0.0 0.0 xyz
      dof rx ry rz
   end
   begin
      id 30
      name RightToeBase
      direction 0.000000 0.000000 1.000000
      length 2.952750
      axis 0.0 0.0 0.0 xyz
      dof rx ry rz
   end
:hierarchy
   begin
      root Spine_dum LeftUpLeg_dum RightUpLeg_dum
      Spine_dum Spine
      LeftUpLeg_dum LeftUpLeg
      RightUpLeg_dum RightUpLeg
      Spine Spine_dum1 Spine_dum2 Spine_dum3
      Spine_dum1 Head
      Spine_dum2 LeftShoulder
      Spine_dum3 RightShoulder
      LeftShoulder LeftArm
      LeftArm LeftForeArm
      LeftForeArm LeftHand
      LeftHand LeftHand_dum1 LeftHand_dum2
      LeftHand_dum1 LeftHandThumb1
      RightShoulder RightArm
      RightArm RightForeArm
      RightForeArm RightHand
      RightHand RightHand_dum1 RightHand_dum2
      RightHand_dum1 RightHandThumb1
      LeftUpLeg LeftLeg
      LeftLeg LeftFoot
      LeftFoot LeftToeBase
      RightUpLeg RightLeg
      RightLeg RightFoot
      RightFoot RightToeBase
   end

# File created by Blade
# Date/Time:  Wed Jan 21 14:28:11 2015
# Frame Rate: 120.000 fps
#------------------------------------------------------
:FULLY-SPECIFIED
:DEGREES
1
root 18.856459 35.522030 -20.828309 -172.809975 -2.994477 -178.784467
Spine -17.975259 -0.120876 0.933552
Head 10.128571 -1.318293 -0.675200
LeftShoulder -10.626391 -37.930928 19.737806
LeftArm 6.041327 8.752642 -8.009695
LeftForeArm 11.395239 0.000000 -1.787287
LeftHand -8.999659 -0.000000 -6.871768
LeftHandThumb1 -26.253704 0.000000 33.147579
RightShoulder -9.598013 0.614446 -12.273204
RightArm 8.309153 40.014903 11.125104
RightForeArm -35.664545 -0.000000 3.654602
RightHand -4.281486 -0.000000 13.253220
RightHandThumb1 -24.326973 -0.000000 -32.862282
LeftUpLeg 0.235875 8.895051 2.272045
LeftLeg -6.633475 -0.000000 0.000000
LeftFoot -19.203682 27.006397 -11.813893
LeftToeBase 27.699525 -0.000000 -0.000000
RightUpLeg -1.187270 -12.844275 -0.099554
RightLeg -3.349720 -0.000000 0.000000
RightFoot -19.601256 -21.769988 16.018950
RightToeBase 25.709121 -0.000000 -0.000000
2
root 18.857777 35.522052 -20.831239 -172.806482 -2.993023 -178.780907
Spine -17.988959 -0.119499 0.936386
Head 10.127071 -1.306083 -0.704851
LeftShoulder -10.647384 -37.936201 19.771143
LeftArm 6.030651 8.756537 -7.988811
LeftForeArm 11.398358 -0.000000 -1.770402
LeftHand -9.040985 -0.000000 -6.861534
LeftHandThumb1 -26.253704 0.000000 33.147579
RightShoulder -9.617272 0.595474 -12.284394
RightArm 8.341859 40.026357 11.138153
RightForeArm -35.631168 -0.000000 3.676167
RightHand -4.264877 -0.000000 13.344052
RightHandThumb1 -24.326973 -0.000000 -32.862282
LeftUpLeg 0.235977 8.893220 2.276348
LeftLeg -6.629582 -0.000000 0.000000
LeftFoot -19.179463 26.975270 -11.898480
LeftToeBase 27.423189 -0.000000 -0.000000
RightUpLeg -1.188820 -12.839695 -0.095010
RightLeg -3.345688 -0.000000 0.000000
RightFoot -19.597854 -21.769034 16.015213
RightToeBase 25.653265 -0.000000 -0.000000
3
root 18.858819 35.521939 -20.834220 -172.807327 -2.985662 -178.782019
Spine -18.000260 -0.109753 0.936280
Head 10.130975 -1.285482 -0.739935
LeftShoulder -10.663760 -37.951309 19.789647
LeftArm 6.029425 8.738441 -7.960270
LeftForeArm 11.455884 -0.000000 -1.769032
LeftHand -9.048213 -0.000000 -6.849101
LeftHandThumb1 -26.253704 0.000000 33.147579
RightShoulder -9.632312 0.600686 -12.305859
RightArm 8.365917 40.015297 11.156756
RightForeArm -35.601801 -0.000000 3.665080
RightHand -4.342574 0.000000 13.162725
RightHandThumb1 -24.326973 -0.000000 -32.862282
LeftUpLeg 0.241633 8.883819 2.277937
LeftLeg -6.625463 -0.000000 0.000000
LeftFoot -19.192612 26.983600 -11.914132
LeftToeBase 27.415535 -0.000000 -0.000000
RightUpLeg -1.186712 -12.816155 -0.096899
RightLeg -3.338227 -0.000000 0.000000
RightFoot -19.608114 -21.781071 15.997076
RightToeBase 25.658111 -0.000000 -0.000000
4
root 18.860048 35.521617 -20.838282 -172.810144 -2.979997 -178.774316
Spine -18.012781 -0.102516 0.949246
Head 10.149514 -1.277789 -0.791937
LeftShoulder -10.676671 -37.961575 19.808635
LeftArm 6.019928 8.728777 -7.926309
LeftForeArm 11.477030 -0.000000 -1.773831
LeftHand -9.050145 -0.000000 -6.869696
LeftHandThumb1 -26.253704 0.000000 33.147579
RightShoulder -9.628059 0.573800 -12.319008
RightArm 8.347078 40.031336 11.126711
RightForeArm -35.651404 -0.000000 3.687631
RightHand -4.375400 0.000000 13.154658
RightHandThumb1 -24.326973 -0.000000 -32.862282
LeftUpLeg 0.247217 8.902142 2.290927
LeftLeg -6.618709 -0.000000 0.000000
LeftFoot -19.216422 27.008143 -11.812784
LeftToeBase 27.672843 -0.000000 -0.000000
RightUpLeg -1.185682 -12.871542 -0.082207
RightLeg -3.331380 -0.000000 0.000000
RightFoot -19.599951 -21.742401 15.989025
RightToeBase 25.678954 -0.000000 -0.000000
5
root 18.861027 35.521509 -20.840988 -172.807559 -2.970934 -178.777984
Spine -18.028015 -0.101084 0.945725
Head 10.147691 -1.248911 -0.814421
LeftShoulder -10.705028 -37.941836 19.834109
LeftArm 6.027066 8.681688 -7.892852
LeftForeArm 11.464387 -0.000000 -1.779105
LeftHand -9.057181 0.000000 -6.848366
LeftHandThumb1 -26.253704 0.000000 33.147579
RightShoulder -9.622578 0.608227 -12.325420
RightArm 8.323819 40.032657 11.077805
RightForeArm -35.734203 -0.000000 3.688794
RightHand -4.318228 -0.000000 13.195127
RightHandThumb1 -24.326973 -0.000000 -32.862282
LeftUpLeg 0.252801 8.909422 2.287264
LeftLeg -6.622333 -0.000000 0.000000
LeftFoot -19.201362 26.975548 -11.905553
LeftToeBase 27.435259 -0.000000 -0.000000
RightUpLeg -1.187340 -12.852386 -0.084466
RightLeg -3.326854 -0.000000 0.000000
RightFoot -19.610766 -21.766256 15.979674
RightToeBase 25.684406 -0.000000 -0.000000
6
root 18.862279 35.521216 -20.844063 -172.798525 -2.965000 -178.773489
Spine -18.055513 -0.095128 0.954889
Head 10.156180 -1.233798 -0.852693
LeftShoulder -10.722172 -37.933958 19.850426
LeftArm 6.028663 8.678087 -7.858675
LeftForeArm 11.470000 -0.000000 -1.778762
LeftHand -9.106692 -0.000000 -6.828602
LeftHandThumb1 -26.253704 0.000000 33.147579
RightShoulder -9.626690 0.622229 -12.343764
RightArm 8.306636 39.992358 11.047696
RightForeArm -35.685772 -0.000000 3.705073
RightHand -4.333816 -0.000000 13.177980
RightHandThumb1 -24.326973 -0.000000 -32.862282
LeftUpLeg 0.252998 8.906811 2.294958
LeftLeg -6.627720 -0.000000 0.000000
LeftFoot -19.220962 27.009576 -11.821963
LeftToeBase 27.676473 -0.000000 -0.000000
RightUpLeg -1.189415 -12.821124 -0.077192
RightLeg -3.330416 -0.000000 0.000000
RightFoot -19.612370 -21.767980 16.092480
RightToeBase 25.422573 -0.000000 -0.000000
7
root 18.862775 35.521060 -20.847361 -172.796077 -2.968990 -178.778915
Spine -18.070674 -0.108137 0.955380
Head 10.159660 -1.205699 -0.885602
LeftShoulder -10.753381 -37.944540 19.881670
LeftArm 6.021076 8.656628 -7.826363
LeftForeArm 11.513542 0.000000 -1.774079
LeftHand -9.111064 -0.000000 -6.811217
LeftHandThumb1 -26.253704 0.000000 33.147579
RightShoulder -9.624352 0.633075 -12.355353
RightArm 8.299860 40.004495 11.023258
RightForeArm -35.705406 -0.000000 3.701245
RightHand -4.349344 -0.000000 13.147303
RightHandThumb1 -24.326973 -0.000000 -32.862282
LeftUpLeg 0.253724 8.902542 2.289552
LeftLeg -6.624574 -0.000000 0.000000
LeftFoot -19.208340 26.983502 -11.913513
LeftToeBase 27.453426 -0.000000 -0.000000
RightUpLeg -1.186188 -12.846860 -0.082268
RightLeg -3.331438 -0.000000 0.000000
RightFoot -19.617636 -21.765724 16.012727
RightToeBase 25.587778 -0.000000 -0.000000
